<svg xmlns="http://www.w3.org/2000/svg" width="1780" height="3810" viewBox="0 0 1780 3810">
  <rect width="1780" height="3810" fill="#ECE8DF"/>
  <defs>
    <style>
      .label{font-family:'Avenir Next',Arial,sans-serif;font-size:15px;font-weight:700;fill:#145442}
      .body{font-family:'Avenir Next',Arial,sans-serif;fill:#211E18}
      .muted{font-family:'Avenir Next',Arial,sans-serif;fill:#817765}
      .serif{font-family:Georgia,serif;fill:#211E18}
      .white{font-family:'Avenir Next',Arial,sans-serif;fill:#FFF8EA}
      .green{fill:#145442}.orange{fill:#C7461B}.paper{fill:#FFF8EA}.line{stroke:#E8DCC4}
    </style>
  </defs>

  <!-- FRAME 01: ONBOARDING / DISCOVER -->
  <text class="label" x="60" y="48">01  Onboarding / Discover</text>
  <g id="onboarding-discover" transform="translate(60 80)">
    <rect width="390" height="844" rx="28" fill="#FFF8EA" stroke="#D6CEBF"/>
    <text class="body" x="25" y="27" font-size="12" font-weight="700">9:41</text><text class="body" x="318" y="27" font-size="11">●  ◔  ▰</text>
    <rect x="23" y="48" width="40" height="40" rx="13" fill="#145442"/><path d="M31 67l12-10 12 10M35 65v14h16V65M41 79v-8h5v8" fill="none" stroke="#FFF8EA" stroke-width="2" stroke-linecap="round" stroke-linejoin="round"/><circle cx="53" cy="57" r="3" fill="#E9A91B"/>
    <text class="green body" x="73" y="65" font-size="13" font-weight="900" letter-spacing="1">BETAH</text><text class="muted" x="73" y="80" font-size="8" font-weight="700" letter-spacing=".6">CARI KOS, RASA RUMAH</text>
    <text class="muted" x="323" y="70" font-size="12">Lewati</text>
    <rect x="23" y="110" width="344" height="390" rx="23" fill="#145442"/>
    <circle cx="346" cy="150" r="70" fill="#1E6956"/><circle cx="47" cy="485" r="94" fill="#0E473A"/>
    <rect x="108" y="215" width="174" height="174" rx="48" fill="#0C3B31" stroke="#6E9B87" stroke-width="2"/>
    <path d="M143 290l52-43 52 43M157 285v65h76v-65M184 350v-38h22v38" fill="none" stroke="#FFF8EA" stroke-width="7" stroke-linecap="round" stroke-linejoin="round"/><circle cx="225" cy="257" r="10" fill="#E9A91B"/>
    <rect x="225" y="440" width="124" height="35" rx="14" fill="#FFF8EA"/><text class="body" x="243" y="462" font-size="10" font-weight="700">★  Pilihan nyaman</text>
    <text class="orange" x="23" y="550" font-size="10" font-weight="900" letter-spacing="1.2">BETAH APP</text>
    <text class="serif" x="23" y="591" font-size="27" font-weight="700">Cari kos senyaman</text><text class="serif" x="23" y="622" font-size="27" font-weight="700">rumah</text>
    <text class="muted" x="23" y="654" font-size="13">Temukan hunian pilihan di Surabaya, lengkap</text><text class="muted" x="23" y="674" font-size="13">dengan foto dan info yang kamu butuhkan.</text>
    <rect x="177" y="716" width="22" height="6" rx="3" fill="#C7461B"/><circle cx="210" cy="719" r="3" fill="#DCCBAA"/><circle cx="222" cy="719" r="3" fill="#DCCBAA"/>
    <rect x="23" y="741" width="344" height="52" rx="13" fill="#C7461B"/><text class="white" x="173" y="773" font-size="14" font-weight="800">Lanjut</text>
    <text class="muted" x="81" y="817" font-size="10">Temukan hunian yang terasa seperti rumah.</text>
  </g>

  <!-- FRAME 02: ONBOARDING / MAP -->
  <text class="label" x="490" y="48">02  Onboarding / Area</text>
  <g id="onboarding-area" transform="translate(490 80)">
    <rect width="390" height="844" rx="28" fill="#FFF8EA" stroke="#D6CEBF"/>
    <text class="body" x="25" y="27" font-size="12" font-weight="700">9:41</text><text class="body" x="318" y="27" font-size="11">●  ◔  ▰</text>
    <rect x="23" y="48" width="40" height="40" rx="13" fill="#145442"/><path d="M31 67l12-10 12 10M35 65v14h16V65M41 79v-8h5v8" fill="none" stroke="#FFF8EA" stroke-width="2" stroke-linecap="round" stroke-linejoin="round"/><circle cx="53" cy="57" r="3" fill="#E9A91B"/>
    <text class="green body" x="73" y="65" font-size="13" font-weight="900" letter-spacing="1">BETAH</text><text class="muted" x="73" y="80" font-size="8" font-weight="700" letter-spacing=".6">CARI KOS, RASA RUMAH</text><text class="muted" x="323" y="70" font-size="12">Lewati</text>
    <rect x="23" y="110" width="344" height="390" rx="23" fill="#145442"/><circle cx="346" cy="150" r="70" fill="#1E6956"/><circle cx="47" cy="485" r="94" fill="#0E473A"/>
    <rect x="108" y="215" width="174" height="174" rx="48" fill="#0C3B31" stroke="#6E9B87" stroke-width="2"/>
    <path d="M136 269c35 18 80 8 111 30M130 312c32-15 70 19 112 1M170 240c12 42-3 80 8 114M229 237c-12 38 9 76-1 117" fill="none" stroke="#FFF8EA" stroke-width="6" stroke-linecap="round"/><path d="M197 281c14 0 24 10 24 23s-10 23-24 23-24-10-24-23 10-23 24-23z" fill="#E9A91B"/><circle cx="197" cy="304" r="7" fill="#145442"/>
    <rect x="225" y="440" width="124" height="35" rx="14" fill="#FFF8EA"/><text class="body" x="243" y="462" font-size="10" font-weight="700">★  Pilihan nyaman</text>
    <text class="orange" x="23" y="550" font-size="10" font-weight="900" letter-spacing="1.2">PILIH LOKASI</text>
    <text class="serif" x="23" y="591" font-size="27" font-weight="700">Dekat dengan</text><text class="serif" x="23" y="622" font-size="27" font-weight="700">tujuanmu</text>
    <text class="muted" x="23" y="654" font-size="13">Jelajahi kos di sekitar kampus, kantor, dan</text><text class="muted" x="23" y="674" font-size="13">area favorit langsung dari peta.</text>
    <circle cx="168" cy="719" r="3" fill="#DCCBAA"/><rect x="177" y="716" width="22" height="6" rx="3" fill="#C7461B"/><circle cx="210" cy="719" r="3" fill="#DCCBAA"/>
    <rect x="23" y="741" width="344" height="52" rx="13" fill="#C7461B"/><text class="white" x="173" y="773" font-size="14" font-weight="800">Lanjut</text><text class="muted" x="81" y="817" font-size="10">Temukan hunian yang terasa seperti rumah.</text>
  </g>

  <!-- FRAME 03: ONBOARDING / SAVE -->
  <text class="label" x="920" y="48">03  Onboarding / Favorit</text>
  <g id="onboarding-save" transform="translate(920 80)">
    <rect width="390" height="844" rx="28" fill="#FFF8EA" stroke="#D6CEBF"/>
    <text class="body" x="25" y="27" font-size="12" font-weight="700">9:41</text><text class="body" x="318" y="27" font-size="11">●  ◔  ▰</text>
    <rect x="23" y="48" width="40" height="40" rx="13" fill="#145442"/><path d="M31 67l12-10 12 10M35 65v14h16V65M41 79v-8h5v8" fill="none" stroke="#FFF8EA" stroke-width="2" stroke-linecap="round" stroke-linejoin="round"/><circle cx="53" cy="57" r="3" fill="#E9A91B"/>
    <text class="green body" x="73" y="65" font-size="13" font-weight="900" letter-spacing="1">BETAH</text><text class="muted" x="73" y="80" font-size="8" font-weight="700" letter-spacing=".6">CARI KOS, RASA RUMAH</text><text class="muted" x="323" y="70" font-size="12">Lewati</text>
    <rect x="23" y="110" width="344" height="390" rx="23" fill="#145442"/><circle cx="346" cy="150" r="70" fill="#1E6956"/><circle cx="47" cy="485" r="94" fill="#0E473A"/>
    <rect x="108" y="215" width="174" height="174" rx="48" fill="#0C3B31" stroke="#6E9B87" stroke-width="2"/><path d="M197 246c-32-34-69 2-37 33l37 39 37-39c32-31-5-67-37-33z" fill="none" stroke="#FFF8EA" stroke-width="8" stroke-linejoin="round"/><circle cx="227" cy="256" r="9" fill="#E9A91B"/>
    <rect x="225" y="440" width="124" height="35" rx="14" fill="#FFF8EA"/><text class="body" x="243" y="462" font-size="10" font-weight="700">★  Pilihan nyaman</text>
    <text class="orange" x="23" y="550" font-size="10" font-weight="900" letter-spacing="1.2">MULAI DARI SINI</text><text class="serif" x="23" y="591" font-size="27" font-weight="700">Temukan tempat</text><text class="serif" x="23" y="622" font-size="27" font-weight="700">pulangmu</text>
    <text class="muted" x="23" y="654" font-size="13">Simpan kos yang kamu suka, bandingkan</text><text class="muted" x="23" y="674" font-size="13">pilihan, lalu temukan yang paling pas.</text>
    <circle cx="168" cy="719" r="3" fill="#DCCBAA"/><circle cx="180" cy="719" r="3" fill="#DCCBAA"/><rect x="189" y="716" width="22" height="6" rx="3" fill="#C7461B"/>
    <rect x="23" y="741" width="344" height="52" rx="13" fill="#C7461B"/><text class="white" x="133" y="773" font-size="14" font-weight="800">Mulai Cari Kos</text><text class="muted" x="81" y="817" font-size="10">Temukan hunian yang terasa seperti rumah.</text>
  </g>

  <!-- FRAME 04: LOGIN -->
  <text class="label" x="1350" y="48">04  Login</text>
  <g id="login" transform="translate(1350 80)">
    <rect width="390" height="844" rx="28" fill="#F7EEDC" stroke="#D6CEBF"/>
    <text class="body" x="25" y="27" font-size="12" font-weight="700">9:41</text><text class="body" x="318" y="27" font-size="11">●  ◔  ▰</text>
    <rect x="25" y="62" width="42" height="42" rx="13" fill="#145442"/><path d="M33 81l13-11 13 11M37 79v15h18V79M43 94v-8h6v8" fill="none" stroke="#FFF8EA" stroke-width="2" stroke-linecap="round" stroke-linejoin="round"/><circle cx="57" cy="70" r="3" fill="#E9A91B"/>
    <text class="green body" x="77" y="80" font-size="13" font-weight="900" letter-spacing="1">BETAH</text><text class="muted" x="77" y="94" font-size="8" font-weight="700">CARI KOS, RASA RUMAH</text>
    <text class="serif" x="25" y="166" font-size="31" font-weight="700">Login</text><text class="muted" x="25" y="192" font-size="13">Masuk untuk mulai mencari kos yang bikin betah.</text>
    <rect x="25" y="229" width="340" height="58" rx="13" fill="#FFF8EA" stroke="#E8DCC4"/><circle cx="51" cy="258" r="8" fill="none" stroke="#817765" stroke-width="1.5"/><text class="muted" x="72" y="254" font-size="10">Alamat email</text><text class="body" x="72" y="271" font-size="13">nama@email.com</text>
    <rect x="25" y="301" width="340" height="58" rx="13" fill="#FFF8EA" stroke="#E8DCC4"/><rect x="44" y="326" width="14" height="12" rx="2" fill="none" stroke="#817765" stroke-width="1.5"/><path d="M47 326v-4a4 4 0 018 0v4" fill="none" stroke="#817765" stroke-width="1.5"/><text class="muted" x="72" y="326" font-size="10">Kata sandi</text><text class="body" x="72" y="344" font-size="14">••••••••</text><text class="muted" x="334" y="337" font-size="16">◉</text>
    <text class="orange" x="260" y="385" font-size="11" font-weight="700">Lupa kata sandi?</text>
    <rect x="25" y="410" width="340" height="52" rx="13" fill="#C7461B"/><text class="white" x="173" y="442" font-size="14" font-weight="800">Masuk</text>
    <text class="muted" x="83" y="500" font-size="12">Belum punya akun?</text><text class="orange" x="214" y="500" font-size="12" font-weight="800" text-decoration="underline">Daftar di sini</text>
    <path d="M25 548h340" stroke="#E8DCC4"/><text class="muted" x="112" y="575" font-size="10">AMAN • PRAKTIS • NYAMAN</text>
    <rect x="25" y="614" width="340" height="128" rx="18" fill="#E2EFE8"/><path d="M61 688l19-16 19 16M66 684v25h28v-25M76 709v-13h8v13" fill="none" stroke="#145442" stroke-width="3" stroke-linecap="round" stroke-linejoin="round"/><text class="green body" x="119" y="663" font-size="13" font-weight="700">Mulai dari tempat</text><text class="green body" x="119" y="683" font-size="13" font-weight="700">yang terasa seperti</text><text class="green body" x="119" y="703" font-size="13" font-weight="700">rumah.</text>
  </g>

  <!-- FRAME 05: REGISTER -->
  <text class="label" x="60" y="978">05  Buat akun</text>
  <g id="register" transform="translate(60 1010)">
    <rect width="390" height="844" rx="28" fill="#F7EEDC" stroke="#D6CEBF"/><text class="body" x="25" y="27" font-size="12" font-weight="700">9:41</text><text class="body" x="318" y="27" font-size="11">●  ◔  ▰</text>
    <rect x="25" y="58" width="42" height="42" rx="13" fill="#145442"/><path d="M33 77l13-11 13 11M37 75v15h18V75M43 90v-8h6v8" fill="none" stroke="#FFF8EA" stroke-width="2" stroke-linecap="round" stroke-linejoin="round"/><circle cx="57" cy="66" r="3" fill="#E9A91B"/><text class="green body" x="77" y="76" font-size="13" font-weight="900" letter-spacing="1">BETAH</text><text class="muted" x="77" y="90" font-size="8" font-weight="700">CARI KOS, RASA RUMAH</text>
    <text class="serif" x="25" y="151" font-size="31" font-weight="700">Buat akun</text><text class="muted" x="25" y="177" font-size="13">Buat akun untuk menyimpan kos pilihanmu.</text>
    <rect x="25" y="207" width="340" height="55" rx="13" fill="#FFF8EA" stroke="#E8DCC4"/><circle cx="51" cy="235" r="8" fill="none" stroke="#817765" stroke-width="1.5"/><text class="muted" x="72" y="239" font-size="12">Nama lengkap</text>
    <rect x="25" y="276" width="340" height="55" rx="13" fill="#FFF8EA" stroke="#E8DCC4"/><path d="M43 298h17v13H43zM43 298l8 7 9-7" fill="none" stroke="#817765" stroke-width="1.5"/><text class="muted" x="72" y="308" font-size="12">Alamat email</text>
    <rect x="25" y="345" width="340" height="55" rx="13" fill="#FFF8EA" stroke="#E8DCC4"/><rect x="44" y="366" width="14" height="12" rx="2" fill="none" stroke="#817765" stroke-width="1.5"/><path d="M47 366v-4a4 4 0 018 0v4" fill="none" stroke="#817765" stroke-width="1.5"/><text class="muted" x="72" y="378" font-size="12">Kata sandi</text><text class="muted" x="334" y="378" font-size="15">◉</text>
    <rect x="25" y="429" width="340" height="52" rx="13" fill="#C7461B"/><text class="white" x="173" y="461" font-size="14" font-weight="800">Daftar</text>
    <text class="muted" x="96" y="523" font-size="12">Sudah punya akun?</text><text class="orange" x="228" y="523" font-size="12" font-weight="800" text-decoration="underline">Masuk</text>
    <rect x="25" y="574" width="340" height="135" rx="18" fill="#E2EFE8"/><circle cx="80" cy="641" r="30" fill="#145442"/><path d="M64 642l11 10 21-23" fill="none" stroke="#FFF8EA" stroke-width="4" stroke-linecap="round" stroke-linejoin="round"/><text class="green body" x="128" y="627" font-size="13" font-weight="700">Satu akun untuk</text><text class="green body" x="128" y="648" font-size="13" font-weight="700">menemukan tempat</text><text class="green body" x="128" y="669" font-size="13" font-weight="700">pulang.</text>
  </g>

  <!-- FRAME 06: HOME -->
  <text class="label" x="490" y="978">06  Beranda</text>
  <g id="home" transform="translate(490 1010)">
    <rect width="390" height="844" rx="28" fill="#F7EEDC" stroke="#D6CEBF"/><text class="body" x="24" y="25" font-size="11" font-weight="700">9:41</text><text class="body" x="320" y="25" font-size="10">●  ◔  ▰</text>
    <rect x="22" y="43" width="43" height="43" rx="14" fill="#145442"/><path d="M30 63l13-11 13 11M34 61v17h18V61M41 78v-8h6v8" fill="none" stroke="#FFF8EA" stroke-width="2" stroke-linecap="round" stroke-linejoin="round"/><circle cx="56" cy="52" r="3" fill="#E9A91B"/><text class="muted" x="78" y="57" font-size="9" font-weight="800" letter-spacing="1">SELAMAT DATANG</text><text class="body" x="78" y="76" font-size="14" font-weight="700">Damar, cari kos di mana?</text><circle cx="347" cy="65" r="18" fill="#E2EFE8"/><path d="M340 69v-7a7 7 0 0114 0v7l2 3h-18l2-3M345 76h4" fill="none" stroke="#145442" stroke-width="1.5" stroke-linecap="round"/>
    <text class="serif" x="22" y="133" font-size="26" font-weight="700">Temukan tempat</text><text class="serif" x="22" y="162" font-size="26" font-weight="700">pulang di Surabaya.</text>
    <rect x="22" y="181" width="346" height="51" rx="14" fill="#FFF8EA" stroke="#E8DCC4"/><circle cx="46" cy="206" r="8" fill="none" stroke="#145442" stroke-width="2"/><path d="M52 212l6 6" stroke="#145442" stroke-width="2"/><text class="muted" x="70" y="211" font-size="12">Cari area, nama kos, atau kampus</text><circle cx="345" cy="206" r="12" fill="#E2EFE8"/><path d="M339 203h12M341 207h8M343 211h4" stroke="#145442" stroke-width="1.4"/>
    <rect x="22" y="246" width="61" height="31" rx="16" fill="#145442"/><text class="white" x="41" y="266" font-size="11" font-weight="700">Semua</text><rect x="91" y="246" width="61" height="31" rx="16" fill="#FFF8EA" stroke="#E8DCC4"/><text class="body" x="111" y="266" font-size="11">Putra</text><rect x="160" y="246" width="61" height="31" rx="16" fill="#FFF8EA" stroke="#E8DCC4"/><text class="body" x="179" y="266" font-size="11">Putri</text><rect x="229" y="246" width="71" height="31" rx="16" fill="#FFF8EA" stroke="#E8DCC4"/><text class="body" x="245" y="266" font-size="11">Campur</text>
    <text class="serif" x="22" y="317" font-size="19" font-weight="700">Pilihan minggu ini</text><text class="orange" x="293" y="317" font-size="11" font-weight="700">Lihat peta →</text>
    <rect x="22" y="331" width="250" height="194" rx="16" fill="#FFF8EA" stroke="#E8DCC4"/>
    <rect x="23" y="332" width="248" height="120" rx="15" fill="#DCC9AE"/><rect x="39" y="350" width="72" height="57" rx="5" fill="#9EC9B8"/><path d="M75 350v57M39 379h72" stroke="#FFF8EA" stroke-width="4"/><rect x="141" y="369" width="103" height="57" rx="6" fill="#FFF8EA"/><rect x="136" y="409" width="116" height="13" rx="6" fill="#B7A587"/><rect x="154" y="357" width="68" height="15" rx="4" fill="#E2A18B"/><rect x="31" y="340" width="76" height="23" rx="12" fill="#FFF8EA"/><text class="green body" x="41" y="355" font-size="8" font-weight="800">KOS PUTRI</text><circle cx="246" cy="350" r="15" fill="#FFF8EA"/><path d="M246 355s-8-5-8-10c0-5 7-6 8-1 2-5 8-4 8 1 0 5-8 10-8 10z" fill="none" stroke="#C7461B" stroke-width="1.5"/>
    <text class="body" x="34" y="474" font-size="13" font-weight="700">Kost Melati Residence</text><text class="muted" x="34" y="492" font-size="10">Ngagel · Surabaya</text><text class="orange" x="34" y="513" font-size="12" font-weight="800">Rp1,25 jt/bln</text><text class="body" x="220" y="513" font-size="10">★ 4.9</text>
    <text class="serif" x="22" y="562" font-size="19" font-weight="700">Kos dekat kamu</text><text class="muted" x="297" y="562" font-size="10">6 ditemukan</text>
    <rect x="22" y="575" width="346" height="105" rx="15" fill="#FFF8EA" stroke="#E8DCC4"/><rect x="32" y="585" width="86" height="85" rx="11" fill="#E2A18B"/><rect x="43" y="597" width="63" height="40" rx="4" fill="#F5E8D1"/><rect x="39" y="641" width="72" height="15" rx="7" fill="#B36D57"/><text class="body" x="130" y="604" font-size="12" font-weight="700">Kost Mawar Indah</text><text class="muted" x="130" y="624" font-size="10">Rungkut, Surabaya</text><text class="body" x="130" y="650" font-size="10">★ 4.8 (24)</text><text class="orange" x="252" y="650" font-size="11" font-weight="800">Rp950 rb/bln</text><circle cx="346" cy="596" r="12" fill="#FFF8EA"/><path d="M346 601s-7-4-7-8c0-4 6-5 7-1 1-4 7-3 7 1 0 4-7 8-7 8z" fill="none" stroke="#817765" stroke-width="1.3"/>
    <rect x="0" y="770" width="390" height="74" fill="#FFF8EA"/><path d="M0 770h390" stroke="#E8DCC4"/><text class="green" x="38" y="799" font-size="17">⌂</text><text class="green" x="28" y="824" font-size="9" font-weight="700">Beranda</text><text class="muted" x="132" y="799" font-size="17">⌖</text><text class="muted" x="130" y="824" font-size="9">Peta</text><text class="muted" x="226" y="799" font-size="17">♡</text><text class="muted" x="218" y="824" font-size="9">Favorit</text><text class="muted" x="321" y="799" font-size="17">♙</text><text class="muted" x="316" y="824" font-size="9">Profil</text>
  </g>

  <!-- FRAME 07: MAP -->
  <text class="label" x="920" y="978">07  Peta</text>
  <g id="map" transform="translate(920 1010)">
    <rect width="390" height="844" rx="28" fill="#F0E2C5" stroke="#D6CEBF"/><text class="body" x="24" y="25" font-size="11" font-weight="700">9:41</text><text class="body" x="320" y="25" font-size="10">●  ◔  ▰</text>
    <path d="M0 134C95 147 223 105 390 152M0 273C108 248 245 302 390 266M88 20c4 108-20 183 19 342M317 18c-22 130 29 220-8 354M0 414c107-32 239 35 390-14" fill="none" stroke="#D8C28F" stroke-width="16" stroke-linecap="round"/><path d="M0 134C95 147 223 105 390 152M0 273C108 248 245 302 390 266M88 20c4 108-20 183 19 342M317 18c-22 130 29 220-8 354M0 414c107-32 239 35 390-14" fill="none" stroke="#FFF7E7" stroke-width="6" stroke-linecap="round"/>
    <path d="M208 68c45-28 101-5 159 28l-22 93c-46 17-99 11-133-17z" fill="#C8DDC6"/><text class="muted" x="33" y="207" font-size="9" font-weight="800" letter-spacing="1">SUKOLILO</text><text class="muted" x="269" y="246" font-size="9" font-weight="800" letter-spacing="1">GUBENG</text><text class="muted" x="23" y="390" font-size="9" font-weight="800" letter-spacing="1">WONOKROMO</text>
    <rect x="18" y="49" width="354" height="50" rx="15" fill="#FFF8EA"/><circle cx="42" cy="74" r="7" fill="none" stroke="#145442" stroke-width="1.8"/><path d="M47 79l5 5" stroke="#145442" stroke-width="1.8"/><text class="muted" x="64" y="79" font-size="12">Cari kos di sekitar sini</text><text class="muted" x="342" y="80" font-size="16">☷</text>
    <rect x="62" y="238" width="70" height="27" rx="14" fill="#145442"/><text class="white" x="74" y="256" font-size="10" font-weight="800">Rp1,25 jt</text><rect x="246" y="296" width="69" height="27" rx="14" fill="#FFF8EA"/><text class="green body" x="258" y="314" font-size="10" font-weight="800">Rp950 rb</text><rect x="146" y="201" width="72" height="27" rx="14" fill="#FFF8EA"/><text class="green body" x="157" y="219" font-size="10" font-weight="800">Rp1,8 jt</text><circle cx="347" cy="129" r="20" fill="#FFF8EA"/><circle cx="347" cy="129" r="7" fill="none" stroke="#145442" stroke-width="2"/><path d="M347 118v5M347 135v5M336 129h5M353 129h5" stroke="#145442" stroke-width="1.5"/>
    <rect x="0" y="601" width="390" height="169" rx="22" fill="#FFF8EA"/><rect x="176" y="612" width="38" height="4" rx="2" fill="#E8DCC4"/><text class="body" x="20" y="644" font-size="15" font-weight="800">Kos di Surabaya</text><text class="muted" x="297" y="644" font-size="10">6 ditemukan</text>
    <rect x="18" y="659" width="228" height="92" rx="11" fill="#FFF8EA" stroke="#E8DCC4"/><rect x="27" y="668" width="78" height="74" rx="9" fill="#9EC9B8"/><rect x="38" y="680" width="56" height="37" rx="3" fill="#E9E2D3"/><rect x="34" y="720" width="63" height="12" rx="6" fill="#7B9A8B"/><text class="body" x="114" y="685" font-size="10" font-weight="700">Kost Melati</text><text class="body" x="114" y="703" font-size="10" font-weight="700">Residence</text><text class="orange" x="114" y="724" font-size="10" font-weight="800">Rp1,25 jt</text><text class="orange" x="213" y="730" font-size="13">♥</text>
    <rect x="0" y="770" width="390" height="74" fill="#FFF8EA"/><path d="M0 770h390" stroke="#E8DCC4"/><text class="muted" x="38" y="799" font-size="17">⌂</text><text class="muted" x="28" y="824" font-size="9">Beranda</text><text class="green" x="132" y="799" font-size="17">⌖</text><text class="green" x="130" y="824" font-size="9" font-weight="700">Peta</text><text class="muted" x="226" y="799" font-size="17">♡</text><text class="muted" x="218" y="824" font-size="9">Favorit</text><text class="muted" x="321" y="799" font-size="17">♙</text><text class="muted" x="316" y="824" font-size="9">Profil</text>
  </g>

  <!-- FRAME 08: FAVORITES -->
  <text class="label" x="1350" y="978">08  Favorit</text>
  <g id="favorites" transform="translate(1350 1010)">
    <rect width="390" height="844" rx="28" fill="#F7EEDC" stroke="#D6CEBF"/><text class="body" x="24" y="25" font-size="11" font-weight="700">9:41</text><text class="body" x="320" y="25" font-size="10">●  ◔  ▰</text>
    <text class="serif" x="22" y="86" font-size="27" font-weight="700">Kos tersimpan</text><text class="muted" x="22" y="112" font-size="12">2 tempat yang kamu suka</text>
    <rect x="22" y="143" width="346" height="112" rx="15" fill="#FFF8EA" stroke="#E8DCC4"/><rect x="32" y="153" width="91" height="92" rx="11" fill="#E2A18B"/><rect x="44" y="164" width="66" height="43" rx="4" fill="#F5E8D1"/><rect x="40" y="211" width="74" height="15" rx="7" fill="#B36D57"/><text class="body" x="135" y="174" font-size="12" font-weight="700">Kost Mawar Indah</text><text class="muted" x="135" y="195" font-size="10">Rungkut, Surabaya</text><text class="body" x="135" y="222" font-size="10">★ 4.8 (24)</text><text class="orange" x="255" y="222" font-size="11" font-weight="800">Rp950 rb/bln</text><text class="orange" x="337" y="168" font-size="15">♥</text>
    <rect x="22" y="267" width="346" height="112" rx="15" fill="#FFF8EA" stroke="#E8DCC4"/><rect x="32" y="277" width="91" height="92" rx="11" fill="#D7BC7E"/><rect x="45" y="289" width="65" height="42" rx="4" fill="#E9E1D1"/><rect x="40" y="335" width="74" height="15" rx="7" fill="#A59168"/><text class="body" x="135" y="298" font-size="12" font-weight="700">Kost Sukun Darmo</text><text class="muted" x="135" y="319" font-size="10">Darmo, Surabaya</text><text class="body" x="135" y="346" font-size="10">★ 4.9 (18)</text><text class="orange" x="255" y="346" font-size="11" font-weight="800">Rp1,8 jt/bln</text><text class="orange" x="337" y="292" font-size="15">♥</text>
    <rect x="0" y="770" width="390" height="74" fill="#FFF8EA"/><path d="M0 770h390" stroke="#E8DCC4"/><text class="muted" x="38" y="799" font-size="17">⌂</text><text class="muted" x="28" y="824" font-size="9">Beranda</text><text class="muted" x="132" y="799" font-size="17">⌖</text><text class="muted" x="130" y="824" font-size="9">Peta</text><circle cx="234" cy="798" r="17" fill="#FFE0B5"/><text class="orange" x="226" y="804" font-size="17">♥</text><text class="green" x="218" y="824" font-size="9" font-weight="700">Favorit</text><text class="muted" x="321" y="799" font-size="17">♙</text><text class="muted" x="316" y="824" font-size="9">Profil</text>
  </g>

  <!-- FRAME 09: REGISTER -->
  <text class="label" x="60" y="1908">09  Buat akun</text>
  <g id="register-compact" transform="translate(60 1940)">
    <rect width="390" height="844" rx="28" fill="#F7EEDC" stroke="#D6CEBF"/><text class="body" x="24" y="25" font-size="11" font-weight="700">9:41</text><text class="body" x="320" y="25" font-size="10">●  ◔  ▰</text>
    <rect x="25" y="55" width="42" height="42" rx="13" fill="#145442"/><path d="M33 74l13-11 13 11M37 72v15h18V72M43 87v-8h6v8" fill="none" stroke="#FFF8EA" stroke-width="2" stroke-linecap="round" stroke-linejoin="round"/><circle cx="57" cy="63" r="3" fill="#E9A91B"/><text class="green body" x="77" y="73" font-size="13" font-weight="900" letter-spacing="1">BETAH</text><text class="muted" x="77" y="87" font-size="8" font-weight="700">CARI KOS, RASA RUMAH</text>
    <text class="serif" x="25" y="148" font-size="30" font-weight="700">Buat akun</text><text class="muted" x="25" y="175" font-size="13">Buat akun untuk menyimpan kos pilihanmu.</text>
    <rect x="25" y="205" width="340" height="55" rx="13" fill="#FFF8EA" stroke="#E8DCC4"/><circle cx="50" cy="232" r="8" fill="none" stroke="#817765" stroke-width="1.4"/><text class="muted" x="71" y="237" font-size="12">Nama lengkap</text>
    <rect x="25" y="273" width="340" height="55" rx="13" fill="#FFF8EA" stroke="#E8DCC4"/><path d="M42 294h17v13H42zM42 294l8 6 9-6" fill="none" stroke="#817765" stroke-width="1.4"/><text class="muted" x="71" y="305" font-size="12">Alamat email</text>
    <rect x="25" y="341" width="340" height="55" rx="13" fill="#FFF8EA" stroke="#E8DCC4"/><rect x="44" y="362" width="14" height="12" rx="2" fill="none" stroke="#817765" stroke-width="1.4"/><path d="M47 362v-4a4 4 0 018 0v4" fill="none" stroke="#817765" stroke-width="1.4"/><text class="muted" x="71" y="373" font-size="12">Kata sandi</text><text class="muted" x="337" y="373" font-size="14">◉</text>
    <rect x="25" y="420" width="340" height="52" rx="13" fill="#C7461B"/><text class="white" x="173" y="452" font-size="14" font-weight="800">Daftar</text><text class="muted" x="95" y="510" font-size="12">Sudah punya akun?</text><text class="orange" x="224" y="510" font-size="12" font-weight="800">Masuk</text>
    <rect x="25" y="565" width="340" height="140" rx="18" fill="#E2EFE8"/><circle cx="80" cy="635" r="30" fill="#145442"/><path d="M64 635l11 10 21-23" fill="none" stroke="#FFF8EA" stroke-width="4" stroke-linecap="round" stroke-linejoin="round"/><text class="green body" x="128" y="620" font-size="13" font-weight="700">Satu akun untuk</text><text class="green body" x="128" y="641" font-size="13" font-weight="700">menemukan tempat</text><text class="green body" x="128" y="662" font-size="13" font-weight="700">pulang.</text>
  </g>

  <!-- FRAME 10: DETAIL -->
  <text class="label" x="490" y="1908">10  Detail kos</text>
  <g id="detail" transform="translate(490 1940)">
    <rect width="390" height="844" rx="28" fill="#F7EEDC" stroke="#D6CEBF"/>
    <rect x="0" y="0" width="390" height="285" rx="28" fill="#DCC9AE"/><rect x="0" y="245" width="390" height="40" fill="#DCC9AE"/><rect x="25" y="62" width="121" height="110" rx="6" fill="#9EC9B8"/><path d="M85 62v110M25 118h121" stroke="#FFF8EA" stroke-width="6"/><rect x="170" y="104" width="161" height="105" rx="8" fill="#FFF8EA"/><rect x="163" y="185" width="174" height="24" rx="10" fill="#B7A587"/><rect x="188" y="86" width="109" height="18" rx="5" fill="#E2A18B"/><rect x="42" y="194" width="80" height="42" rx="5" fill="#9C8A6F"/><rect x="28" y="41" width="38" height="38" rx="20" fill="#FFF8EA"/><text class="body" x="42" y="66" font-size="20">‹</text><circle cx="346" cy="60" r="19" fill="#FFF8EA"/><text class="orange" x="338" y="66" font-size="18">♥</text><rect x="20" y="245" width="149" height="25" rx="13" fill="#FFF8EA"/><text class="green body" x="31" y="262" font-size="10" font-weight="700">✓ Diverifikasi Betah</text>
    <text class="serif" x="22" y="324" font-size="23" font-weight="700">Kost Melati Residence</text><text class="body" x="329" y="324" font-size="13" font-weight="800">★ 4.9</text><text class="muted" x="22" y="350" font-size="11">⌖  Jl. Ngagel Jaya Selatan No. 18, Wonokromo</text><text class="muted" x="22" y="371" font-size="11">32 ulasan · Kos Putri</text>
    <text class="body" x="22" y="410" font-size="15" font-weight="800">Fasilitas kamar</text><rect x="22" y="425" width="79" height="32" rx="10" fill="#FFF8EA" stroke="#E8DCC4"/><text class="body" x="35" y="445" font-size="10">⌁ Wi-Fi</text><rect x="110" y="425" width="59" height="32" rx="10" fill="#FFF8EA" stroke="#E8DCC4"/><text class="body" x="122" y="445" font-size="10">❄ AC</text><rect x="178" y="425" width="73" height="32" rx="10" fill="#FFF8EA" stroke="#E8DCC4"/><text class="body" x="190" y="445" font-size="10">Kasur</text><rect x="260" y="425" width="108" height="32" rx="10" fill="#FFF8EA" stroke="#E8DCC4"/><text class="body" x="270" y="445" font-size="9">Kamar mandi dalam</text>
    <text class="body" x="22" y="491" font-size="15" font-weight="800">Tentang kos ini</text><text class="muted" x="22" y="515" font-size="11">Kamar bersih dan terang di lingkungan tenang,</text><text class="muted" x="22" y="533" font-size="11">dekat pusat kuliner Ngagel dan akses transportasi.</text><text class="muted" x="22" y="551" font-size="11">Cocok untuk pekerja maupun mahasiswi.</text>
    <text class="body" x="22" y="591" font-size="15" font-weight="800">Lokasi</text><text class="muted" x="22" y="612" font-size="11">Ngagel, Surabaya</text><rect x="22" y="625" width="346" height="87" rx="14" fill="#E2EFE8"/><path d="M195 649c-12 0-21 9-21 21 0 15 21 34 21 34s21-19 21-34c0-12-9-21-21-21z" fill="#C7461B"/><circle cx="195" cy="670" r="7" fill="#FFF8EA"/>
    <rect x="0" y="735" width="390" height="109" fill="#FFF8EA"/><path d="M0 735h390" stroke="#E8DCC4"/><text class="orange" x="22" y="774" font-size="18" font-weight="800">Rp1,25 jt</text><text class="muted" x="22" y="795" font-size="10">per bulan</text><rect x="220" y="752" width="148" height="49" rx="13" fill="#C7461B"/><text class="white" x="246" y="782" font-size="12" font-weight="800">⌖  Lihat lokasi</text>
  </g>

  <!-- FRAME 11: PROFILE -->
  <text class="label" x="920" y="1908">11  Profil</text>
  <g id="profile" transform="translate(920 1940)">
    <rect width="390" height="844" rx="28" fill="#F7EEDC" stroke="#D6CEBF"/><text class="body" x="24" y="25" font-size="11" font-weight="700">9:41</text><text class="body" x="320" y="25" font-size="10">●  ◔  ▰</text>
    <text class="serif" x="22" y="88" font-size="27" font-weight="700">Profil</text>
    <rect x="22" y="111" width="346" height="112" rx="19" fill="#145442"/><rect x="39" y="137" width="58" height="58" rx="18" fill="#FFD98B"/><text class="green body" x="53" y="173" font-size="20" font-weight="800">DA</text><text class="white" x="112" y="153" font-size="16" font-weight="700">Damar Ardiansyah</text><text x="112" y="175" font-family="Avenir Next,Arial,sans-serif" fill="#D9E8E1" font-size="11">damar.ardi@email.com</text><text x="336" y="164" font-family="Arial,sans-serif" fill="#FFF8EA" font-size="17">✎</text><text x="112" y="197" font-family="Avenir Next,Arial,sans-serif" fill="#D9E8E1" font-size="9">Sukolilo · Budget Rp1.500.000/bln</text>
    <text class="muted" x="24" y="259" font-size="10" font-weight="800" letter-spacing="1">AKUN</text>
    <rect x="22" y="273" width="346" height="67" rx="13" fill="#FFF8EA"/><rect x="34" y="285" width="42" height="42" rx="13" fill="#E2EFE8"/><circle cx="55" cy="298" r="7" fill="none" stroke="#145442" stroke-width="1.7"/><path d="M42 318c1-8 25-8 26 0" fill="none" stroke="#145442" stroke-width="1.7"/><text class="body" x="89" y="301" font-size="13" font-weight="700">Data diri</text><text class="muted" x="89" y="320" font-size="10">Profil dan preferensi kos</text><text class="muted" x="343" y="310" font-size="19">›</text>
    <rect x="22" y="350" width="346" height="67" rx="13" fill="#FFF8EA"/><rect x="34" y="362" width="42" height="42" rx="13" fill="#E2EFE8"/><text class="green" x="44" y="391" font-size="22">♡</text><text class="body" x="89" y="378" font-size="13" font-weight="700">Kos tersimpan</text><text class="muted" x="89" y="397" font-size="10">Kelola daftar favoritmu</text><text class="muted" x="343" y="387" font-size="19">›</text>
    <text class="muted" x="24" y="457" font-size="10" font-weight="800" letter-spacing="1">INFORMASI</text>
    <rect x="22" y="471" width="346" height="67" rx="13" fill="#FFF8EA"/><rect x="34" y="483" width="42" height="42" rx="13" fill="#E2EFE8"/><circle cx="55" cy="504" r="11" fill="none" stroke="#145442" stroke-width="1.6"/><text class="green" x="52" y="509" font-size="14" font-weight="700">?</text><text class="body" x="89" y="499" font-size="13" font-weight="700">Pusat bantuan</text><text class="muted" x="89" y="518" font-size="10">Panduan menggunakan Betah</text><text class="muted" x="343" y="508" font-size="19">›</text>
    <rect x="22" y="548" width="346" height="67" rx="13" fill="#FFF8EA"/><rect x="34" y="560" width="42" height="42" rx="13" fill="#E2EFE8"/><circle cx="55" cy="581" r="11" fill="none" stroke="#145442" stroke-width="1.6"/><text class="green" x="52" y="586" font-size="14" font-weight="700">i</text><text class="body" x="89" y="576" font-size="13" font-weight="700">Tentang Betah</text><text class="muted" x="89" y="595" font-size="10">Versi aplikasi 1.0.0</text><text class="muted" x="343" y="585" font-size="19">›</text>
    <rect x="22" y="640" width="346" height="48" rx="12" fill="none" stroke="#E8DCC4"/><text class="orange" x="151" y="669" font-size="12" font-weight="700">↪  Keluar dari akun</text>
    <rect x="0" y="770" width="390" height="74" fill="#FFF8EA"/><path d="M0 770h390" stroke="#E8DCC4"/><text class="muted" x="38" y="799" font-size="17">⌂</text><text class="muted" x="28" y="824" font-size="9">Beranda</text><text class="muted" x="132" y="799" font-size="17">⌖</text><text class="muted" x="130" y="824" font-size="9">Peta</text><text class="muted" x="226" y="799" font-size="17">♡</text><text class="muted" x="218" y="824" font-size="9">Favorit</text><circle cx="329" cy="798" r="17" fill="#FFE0B5"/><text class="green" x="321" y="804" font-size="17">♙</text><text class="green" x="316" y="824" font-size="9" font-weight="700">Profil</text>
  </g>

  <!-- FRAME 12: EDIT PROFILE -->
  <text class="label" x="1350" y="1908">12  Edit Profil</text>
  <g id="edit-profile" transform="translate(1350 1940)">
    <rect width="390" height="844" rx="28" fill="#F7EEDC" stroke="#D6CEBF"/><text class="body" x="24" y="25" font-size="11" font-weight="700">9:41</text><text class="body" x="320" y="25" font-size="10">●  ◔  ▰</text><text class="body" x="23" y="67" font-size="18">‹</text><text class="body" x="53" y="67" font-size="16" font-weight="700">Edit profil</text>
    <text class="body" x="22" y="109" font-size="15" font-weight="800">Data diri</text>
    <rect x="22" y="122" width="346" height="51" rx="12" fill="#FFF8EA" stroke="#E8DCC4"/><text class="muted" x="39" y="143" font-size="9">Nama lengkap</text><text class="body" x="39" y="161" font-size="12">Damar Ardiansyah</text>
    <rect x="22" y="182" width="346" height="51" rx="12" fill="#EFE9DD" stroke="#E8DCC4"/><text class="muted" x="39" y="203" font-size="9">Email akun</text><text class="body" x="39" y="220" font-size="12">damar.ardi@email.com</text>
    <rect x="22" y="242" width="346" height="51" rx="12" fill="#FFF8EA" stroke="#E8DCC4"/><text class="muted" x="39" y="263" font-size="9">Nomor telepon</text><text class="body" x="39" y="280" font-size="12">+62 812 3456 7890</text>
    <rect x="22" y="302" width="346" height="51" rx="12" fill="#FFF8EA" stroke="#E8DCC4"/><text class="muted" x="39" y="323" font-size="9">Tanggal lahir</text><text class="body" x="39" y="340" font-size="12">14/08/2001</text><text class="muted" x="335" y="333" font-size="14">▦</text><text class="muted" x="31" y="369" font-size="10">Umur 25 tahun</text>
    <rect x="22" y="383" width="346" height="51" rx="12" fill="#FFF8EA" stroke="#E8DCC4"/><text class="muted" x="39" y="404" font-size="9">Gender</text><text class="body" x="39" y="421" font-size="12">Laki-laki</text><text class="muted" x="337" y="415" font-size="14">⌄</text>
    <text class="body" x="22" y="466" font-size="15" font-weight="800">Preferensi mencari kos</text>
    <rect x="22" y="479" width="346" height="59" rx="12" fill="#FFF8EA" stroke="#E8DCC4"/><text class="muted" x="39" y="500" font-size="9">Alamat domisili saat ini</text><text class="body" x="39" y="518" font-size="11">Jl. Keputih Tegal, Surabaya</text>
    <rect x="22" y="547" width="346" height="51" rx="12" fill="#FFF8EA" stroke="#E8DCC4"/><text class="muted" x="39" y="568" font-size="9">Area kos yang dicari</text><text class="body" x="39" y="585" font-size="12">Sukolilo, Rungkut</text>
    <rect x="22" y="607" width="346" height="51" rx="12" fill="#FFF8EA" stroke="#E8DCC4"/><text class="muted" x="39" y="628" font-size="9">Budget per bulan (Rp)</text><text class="body" x="39" y="645" font-size="12">1500000</text>
    <rect x="22" y="667" width="164" height="51" rx="12" fill="#FFF8EA" stroke="#E8DCC4"/><text class="muted" x="38" y="688" font-size="9">Kegiatan saat ini</text><text class="body" x="38" y="705" font-size="11">Mahasiswa</text><rect x="197" y="667" width="171" height="51" rx="12" fill="#FFF8EA" stroke="#E8DCC4"/><text class="muted" x="213" y="688" font-size="9">Mulai tinggal</text><text class="body" x="213" y="705" font-size="11">01/11/2026</text>
    <rect x="22" y="748" width="346" height="51" rx="13" fill="#C7461B"/><text class="white" x="116" y="780" font-size="13" font-weight="800">✓  Simpan perubahan</text>
  </g>

  <!-- FRAME 13: HELP -->
  <text class="label" x="60" y="2838">13  Pusat Bantuan</text>
  <g id="help" transform="translate(60 2870)">
    <rect width="390" height="844" rx="28" fill="#F7EEDC" stroke="#D6CEBF"/><text class="body" x="24" y="25" font-size="11" font-weight="700">9:41</text><text class="body" x="320" y="25" font-size="10">●  ◔  ▰</text><text class="body" x="23" y="67" font-size="18">‹</text><text class="body" x="53" y="67" font-size="16" font-weight="700">Pusat bantuan</text>
    <text class="serif" x="22" y="118" font-size="22" font-weight="700">Ada yang bisa kami bantu?</text><text class="muted" x="22" y="143" font-size="12">Temukan jawaban seputar pencarian dan akun Betah.</text>
    <rect x="22" y="169" width="346" height="77" rx="12" fill="#FFF8EA" stroke="#E8DCC4"/><text class="body" x="39" y="198" font-size="12" font-weight="700">Bagaimana cara menyimpan kos?</text><text class="muted" x="343" y="199" font-size="16">⌄</text><text class="muted" x="39" y="221" font-size="10">Ketuk ikon hati pada kartu atau halaman detail.</text>
    <rect x="22" y="254" width="346" height="67" rx="12" fill="#FFF8EA" stroke="#E8DCC4"/><text class="body" x="39" y="294" font-size="12" font-weight="700">Cari berdasarkan area?</text><text class="muted" x="343" y="294" font-size="16">⌄</text>
    <rect x="22" y="329" width="346" height="67" rx="12" fill="#FFF8EA" stroke="#E8DCC4"/><text class="body" x="39" y="369" font-size="12" font-weight="700">Cara memperbarui profil?</text><text class="muted" x="343" y="369" font-size="16">⌄</text>
    <rect x="22" y="404" width="346" height="67" rx="12" fill="#FFF8EA" stroke="#E8DCC4"/><text class="body" x="39" y="444" font-size="12" font-weight="700">Lupa kata sandi?</text><text class="muted" x="343" y="444" font-size="16">⌄</text>
    <rect x="22" y="479" width="346" height="67" rx="12" fill="#FFF8EA" stroke="#E8DCC4"/><text class="body" x="39" y="519" font-size="12" font-weight="700">Apakah data profil bisa diubah?</text><text class="muted" x="343" y="519" font-size="16">⌄</text>
    <rect x="22" y="579" width="346" height="125" rx="17" fill="#E2EFE8"/><circle cx="70" cy="640" r="25" fill="#145442"/><text class="white" x="64" y="648" font-size="24" font-weight="700">?</text><text class="green body" x="111" y="627" font-size="13" font-weight="700">Masih butuh bantuan?</text><text class="muted" x="111" y="649" font-size="10">Kami siap membantu pencarianmu.</text><text class="orange" x="111" y="675" font-size="10" font-weight="800">Hubungi tim Betah →</text>
  </g>

  <!-- FRAME 14: ABOUT -->
  <text class="label" x="490" y="2838">14  Tentang Betah</text>
  <g id="about" transform="translate(490 2870)">
    <rect width="390" height="844" rx="28" fill="#F7EEDC" stroke="#D6CEBF"/><text class="body" x="24" y="25" font-size="11" font-weight="700">9:41</text><text class="body" x="320" y="25" font-size="10">●  ◔  ▰</text><text class="body" x="23" y="67" font-size="18">‹</text><text class="body" x="53" y="67" font-size="16" font-weight="700">Tentang Betah</text>
    <rect x="151" y="139" width="88" height="88" rx="26" fill="#145442"/><path d="M169 181l26-21 26 21M177 177v32h36v-32M190 209v-17h10v17" fill="none" stroke="#FFF8EA" stroke-width="4" stroke-linecap="round" stroke-linejoin="round"/><circle cx="217" cy="161" r="6" fill="#E9A91B"/>
    <text class="serif" x="167" y="271" font-size="30" font-weight="700">Betah</text><text class="green body" x="132" y="300" font-size="13" font-weight="700">Cari kos, rasa rumah.</text>
    <text class="muted" x="44" y="348" font-size="12">Betah membantu kamu menemukan hunian kos</text><text class="muted" x="49" y="367" font-size="12">yang sesuai kebutuhan, lokasi, dan rencana</text><text class="muted" x="117" y="386" font-size="12">tinggal di Surabaya.</text>
    <path d="M22 430h346" stroke="#E8DCC4"/><text class="body" x="25" y="469" font-size="12" font-weight="700">Versi aplikasi</text><text class="muted" x="315" y="469" font-size="12">1.0.0</text><path d="M22 489h346" stroke="#E8DCC4"/><text class="body" x="25" y="528" font-size="12" font-weight="700">Wilayah layanan</text><text class="muted" x="307" y="528" font-size="12">Surabaya</text><path d="M22 548h346" stroke="#E8DCC4"/>
    <rect x="24" y="610" width="342" height="91" rx="16" fill="#E2EFE8"/><text class="green body" x="47" y="647" font-size="13" font-weight="700">Satu tempat untuk memulai.</text><text class="muted" x="47" y="671" font-size="11">Temukan hunian yang terasa seperti rumah.</text>
  </g>

  <!-- FRAME 15: ABOUT / CONTINUED HOME STATE -->
  <text class="label" x="920" y="2838">15  Detail / Fasilitas</text>
  <g id="detail-amenities" transform="translate(920 2870)">
    <rect width="390" height="844" rx="28" fill="#F7EEDC" stroke="#D6CEBF"/><rect x="0" y="0" width="390" height="278" rx="28" fill="#D7BC7E"/><rect x="0" y="242" width="390" height="36" fill="#D7BC7E"/><rect x="32" y="55" width="100" height="92" rx="6" fill="#A8C9BB"/><path d="M82 55v92M32 100h100" stroke="#FFF8EA" stroke-width="5"/><rect x="159" y="102" width="176" height="101" rx="9" fill="#FFF8EA"/><rect x="152" y="181" width="190" height="22" rx="10" fill="#A59168"/><rect x="174" y="84" width="112" height="18" rx="5" fill="#E2A18B"/><rect x="27" y="37" width="38" height="38" rx="19" fill="#FFF8EA"/><text class="body" x="41" y="62" font-size="20">‹</text><circle cx="346" cy="56" r="19" fill="#FFF8EA"/><text class="orange" x="338" y="62" font-size="18">♥</text><rect x="20" y="236" width="149" height="25" rx="13" fill="#FFF8EA"/><text class="green body" x="31" y="253" font-size="10" font-weight="700">✓ Diverifikasi Betah</text>
    <text class="serif" x="22" y="316" font-size="22" font-weight="700">Kost Sukun Darmo</text><text class="body" x="327" y="316" font-size="13" font-weight="800">★ 4.9</text><text class="muted" x="22" y="343" font-size="11">Jl. Raya Darmo Permai II No. 4, Surabaya</text><text class="muted" x="22" y="364" font-size="11">18 ulasan · Kos Campur</text>
    <text class="body" x="22" y="405" font-size="15" font-weight="800">Fasilitas kamar</text><rect x="22" y="420" width="79" height="32" rx="10" fill="#FFF8EA" stroke="#E8DCC4"/><text class="body" x="35" y="440" font-size="10">⌁ Wi-Fi</text><rect x="110" y="420" width="59" height="32" rx="10" fill="#FFF8EA" stroke="#E8DCC4"/><text class="body" x="122" y="440" font-size="10">❄ AC</text><rect x="178" y="420" width="73" height="32" rx="10" fill="#FFF8EA" stroke="#E8DCC4"/><text class="body" x="190" y="440" font-size="10">CCTV</text><rect x="260" y="420" width="90" height="32" rx="10" fill="#FFF8EA" stroke="#E8DCC4"/><text class="body" x="272" y="440" font-size="10">Laundry</text>
    <text class="body" x="22" y="488" font-size="15" font-weight="800">Tentang kos ini</text><text class="muted" x="22" y="512" font-size="11">Kost modern dengan akses mudah ke pusat</text><text class="muted" x="22" y="530" font-size="11">kota Surabaya. Area bersama lapang dan</text><text class="muted" x="22" y="548" font-size="11">lingkungan yang tertata.</text><text class="body" x="22" y="587" font-size="15" font-weight="800">Lokasi</text><rect x="22" y="602" width="346" height="96" rx="14" fill="#E2EFE8"/><circle cx="195" cy="649" r="19" fill="#C7461B"/><circle cx="195" cy="649" r="6" fill="#FFF8EA"/>
    <rect x="0" y="735" width="390" height="109" fill="#FFF8EA"/><path d="M0 735h390" stroke="#E8DCC4"/><text class="orange" x="22" y="774" font-size="18" font-weight="800">Rp1,8 jt</text><text class="muted" x="22" y="795" font-size="10">per bulan</text><rect x="220" y="752" width="148" height="49" rx="13" fill="#C7461B"/><text class="white" x="246" y="782" font-size="12" font-weight="800">⌖  Lihat lokasi</text>
  </g>

  <!-- FRAME 16: FAVORITES EMPTY -->
  <text class="label" x="1350" y="2838">16  Favorit / Kosong</text>
  <g id="favorites-empty" transform="translate(1350 2870)">
    <rect width="390" height="844" rx="28" fill="#F7EEDC" stroke="#D6CEBF"/><text class="body" x="24" y="25" font-size="11" font-weight="700">9:41</text><text class="body" x="320" y="25" font-size="10">●  ◔  ▰</text><text class="serif" x="22" y="87" font-size="27" font-weight="700">Kos tersimpan</text><text class="muted" x="22" y="113" font-size="12">0 tempat yang kamu suka</text>
    <circle cx="195" cy="354" r="51" fill="#E2EFE8"/><path d="M195 356s-21-13-21-27c0-12 18-15 21-2 4-13 21-10 21 2 0 14-21 27-21 27z" fill="none" stroke="#145442" stroke-width="4"/><text class="body" x="115" y="437" font-size="14" font-weight="700">Belum ada kos tersimpan</text><text class="muted" x="80" y="463" font-size="11">Ketuk ikon hati pada kos untuk menyimpan</text><text class="muted" x="137" y="481" font-size="11">pilihan favoritmu.</text><rect x="89" y="512" width="212" height="46" rx="12" fill="#145442"/><text class="white" x="142" y="540" font-size="12" font-weight="700">Jelajahi kos</text>
    <rect x="0" y="770" width="390" height="74" fill="#FFF8EA"/><path d="M0 770h390" stroke="#E8DCC4"/><text class="muted" x="38" y="799" font-size="17">⌂</text><text class="muted" x="28" y="824" font-size="9">Beranda</text><text class="muted" x="132" y="799" font-size="17">⌖</text><text class="muted" x="130" y="824" font-size="9">Peta</text><circle cx="234" cy="798" r="17" fill="#FFE0B5"/><text class="orange" x="226" y="804" font-size="17">♡</text><text class="green" x="218" y="824" font-size="9" font-weight="700">Favorit</text><text class="muted" x="321" y="799" font-size="17">♙</text><text class="muted" x="316" y="824" font-size="9">Profil</text>
  </g>
</svg>
